<?xml version="1.0" encoding="utf-8"?>
<svg version="1.1" id="Layer_1" xmlns="http://www.w3.org/2000/svg" xmlns:xlink="http://www.w3.org/1999/xlink" x="0px" y="0px"
	 viewBox="0 0 2000 2000" style="enable-background:new 0 0 2000 2000;" xml:space="preserve">
<style type="text/css">
	.st0 {
		fill:#FFFFFF;
	}

	g {
		fill: var(--dark-color);
	}
</style>
<g>
	<circle cx="1000" cy="1000" r="1000" />
</g>
<g id="Layer_2_1_">
	<g id="Layer_1-2">
		<path class="st0" d="M284,1435.4l121.9-870.8h283.7c174.2,0,269.9,87.1,269.9,226.4c0,64.7-29.8,155.5-126.9,201.5
			c72.2,37.3,104.5,102,104.5,174.2c0,97-54.7,268.7-292.4,268.7H284z M481.8,1276.2h158c78.4,0,124.4-44.8,124.4-115.7
			c0-59.7-44.8-95.8-125.6-95.8H512.9L481.8,1276.2z M532.8,921.6h133.1c99.7,0,120.8-68.4,120.8-110.7c0-58.5-43.6-92.1-124.4-92.1
			H561.4L532.8,921.6z"/>
		<path class="st0" d="M1428.5,564.6c166.7,0,287.5,105.7,287.5,265c0,177.9-133.1,319.7-317.2,319.7h-166.9l-39.8,286.1h-176.6
			l121.9-870.8H1428.5z M1397.4,990.1c110.7,0,142-94.6,142-148c0-68.4-46-118.2-133.1-118.2h-114.6l-37.3,266.2H1397.4z"/>
	</g>
</g>
</svg>
