<svg fill="current" stroke="current" xmlns="http://www.w3.org/2000/svg" viewBox="0 0 473.95 288.24"><defs></defs><g id="Layer_2" data-name="Layer 2"><g id="Layer_1-2" data-name="Layer 1"><path class="cls-1" d="M0,288.24,40.35,0h93.89c57.65,0,89.35,28.82,89.35,74.94,0,21.41-9.88,51.47-42,66.71,23.89,12.35,34.59,33.77,34.59,57.65,0,32.12-18.12,88.94-96.77,88.94Zm65.47-52.71h52.3c25.94,0,41.17-14.82,41.17-38.29,0-19.77-14.82-31.71-41.58-31.71H75.77ZM82.35,118.18h44.06c33,0,40-22.65,40-36.65,0-19.35-14.42-30.47-41.18-30.47H91.83Z"/><path class="cls-1" d="M378.83,0C434,0,474,35,474,87.71c0,58.88-44.06,105.82-105,105.82H313.77l-13.18,94.71H242.12L282.47,0Zm-10.3,140.83c36.65,0,47-31.3,47-49,0-22.65-15.24-39.12-44.06-39.12H333.53l-12.35,88.12Z"/></g></g></svg>